<svg width="689" height="631" xmlns="http://www.w3.org/2000/svg" xmlns:xlink="http://www.w3.org/1999/xlink" overflow="hidden"><defs><clipPath id="clip0"><rect x="341" y="131" width="689" height="631"/></clipPath><clipPath id="clip1"><rect x="341" y="131" width="689" height="630"/></clipPath></defs><g clip-path="url(#clip0)" transform="translate(-341 -131)"><g clip-path="url(#clip1)"><path d="M-100.888-60.9886 800.147-60.9886 800.147 636.447-100.888 636.447Z" fill="#FFFFFF" fill-rule="evenodd" transform="matrix(1 0 0 1.03037 341 131.208)"/><path d="M156.632 165.638 156.632 183.65 33.7432 170.54 28.6133 170.54 26.9034 172.364 26.3334 172.82 24.8514 176.468 23.5975 181.94 23.2555 186.272 23.2555 188.894 23.9394 194.365 24.9654 195.505 26.5614 197.785 32.8312 198.469 154.01 211.351 156.632 212.035 156.632 230.047 25.6494 215.797 22.2295 214.087 19.7215 210.553 17.0996 202.915 16.1876 197.785 16.1876 185.93 17.8976 172.934 21.4315 162.674 26.2194 155.492 28.8413 152.984 33.4012 152.072Z" fill="#E9E9E9" fill-rule="evenodd" transform="matrix(1 0 0 1.03037 341 131.208)"/><path d="M156.632 183.65 156.746 208.501 25.6494 194.251 24.9654 195.505 23.9394 194.365 23.2555 188.894 23.2555 186.272 23.5975 181.94 24.8514 176.468 26.3334 172.82 26.9034 172.364 29.1833 171.452 29.4113 170.882 33.7432 170.54Z" fill="#F29840" fill-rule="evenodd" transform="matrix(1 0 0 1.03037 341 131.208)"/><path d="M526.896 49.8168 527.694 50.6148 527.922 363.31 503.298 360.916 505.464 362.626 509.568 371.289 510.822 379.383 509.91 379.839 505.692 379.383 501.474 378.699 500.904 377.331 499.65 376.761 272.682 352.822 270.06 352.708 264.702 355.558 264.36 383.601 264.93 383.715 490.987 407.769 494.179 408.452 495.547 408.111 497.826 406.971 501.36 406.857 504.666 407.313 508.2 408.111 502.728 419.738 498.168 423.728 498.282 424.526 527.922 427.718 527.352 555.281 469.897 586.288 464.881 586.174 157.088 553.571 156.632 230.047 171.794 231.301 179.66 231.301 176.126 225.259 174.416 218.305 173.846 213.973 174.758 213.517 182.396 214.429 183.08 214.657 184.106 216.595 410.96 240.648 415.064 240.99 415.292 240.534 419.852 237.798 420.194 209.755 419.624 209.527 192.77 185.588 187.868 185.588 186.728 186.272 183.308 186.386 178.976 186.158 177.266 185.132 177.836 181.598 183.422 171.794 187.412 168.83 156.632 165.638 157.202 48.4489 215.341 17.2136Z" fill="#E9E9E9" fill-rule="evenodd" transform="matrix(1 0 0 1.03037 341 131.208)"/><path d="M176.468 185.588 176.582 186.272 175.214 191.06 173.504 204.967 173.846 210.211 156.746 208.501 156.632 183.65Z" fill="#E2B48A" fill-rule="evenodd" transform="matrix(1 0 0 1.03037 341 131.208)"/><path d="M188.096 295.937 184.448 298.217 184.106 325.348 183.422 325.462 183.65 297.419 188.21 295.367Z" fill="#E2B48A" fill-rule="evenodd" transform="matrix(1 0 0 1.03037 341 131.208)"/><path d="M156.632 212.035 154.01 211.351 156.404 211.123Z" fill="#686879" fill-rule="evenodd" transform="matrix(1 0 0 1.03037 341 131.208)"/><path d="M282.941 276.33 282.371 276.216 282.827 248.058Z" fill="#686879" fill-rule="evenodd" transform="matrix(1 0 0 1.03037 341 131.208)"/><path d="M264.93 383.715 264.36 383.601 264.702 355.558Z" fill="#686879" fill-rule="evenodd" transform="matrix(1 0 0 1.03037 341 131.208)"/><path d="M527.922 409.934 527.922 427.718 498.282 424.526 498.168 423.728 502.728 419.738 508.2 408.111 509.112 407.769Z" fill="#DDDDDD" fill-rule="evenodd" transform="matrix(1 0 0 1.03037 341 131.208)"/><path d="M419.624 209.527 419.51 210.211 415.064 212.605 414.494 240.192 410.96 240.648 184.106 216.595 183.08 214.657 182.738 192.542 181.256 199.723 181.37 210.895 173.846 210.211 173.504 204.967 175.214 191.06 176.582 186.272 178.976 186.158 183.308 186.386 183.764 187.298 185.36 187.526 186.728 186.272 187.868 185.588 192.77 185.588Z" fill="#F29840" fill-rule="evenodd" transform="matrix(1 0 0 1.03037 341 131.208)"/><path d="M497.826 267.21 500.448 268.008 495.547 270.744 495.318 298.673 448.01 293.885 282.941 276.33 282.827 248.058 288.071 245.322 291.605 245.322Z" fill="#F29840" fill-rule="evenodd" transform="matrix(1 0 0 1.03037 341 131.208)"/><path d="M271.77 303.347 401.613 317.027 401.499 317.711 397.053 319.991 396.597 347.692 392.151 348.034 190.148 326.488 185.816 326.146 184.106 325.348 184.448 298.217 188.096 295.937 188.21 295.367 190.946 294.683Z" fill="#F29840" fill-rule="evenodd" transform="matrix(1 0 0 1.03037 341 131.208)"/><path d="M499.65 376.761 500.904 377.331 501.474 378.699 501.588 379.269 505.692 379.383 509.91 379.839 513.33 380.295 526.212 381.549 529.632 382.005 655.143 395.229 655.257 395.913 652.179 400.815 650.469 407.769 650.583 416.09 643.401 415.976 642.717 418.028 635.877 417.686 498.396 403.095 493.723 403.095 494.179 404.691 494.977 405.717 495.547 408.111 494.179 408.452 490.987 407.769 264.93 383.715 264.702 355.558 270.06 352.708 272.682 352.822Z" fill="#F29840" fill-rule="evenodd" transform="matrix(1 0 0 1.03037 341 131.208)"/><path d="M419.852 237.798 415.292 240.534 414.494 240.192 415.064 212.605 419.51 210.211Z" fill="#D98839" fill-rule="evenodd" transform="matrix(1 0 0 1.03037 341 131.208)"/><path d="M401.841 345.298 397.395 348.034 396.597 347.692 397.053 319.991 401.499 317.711Z" fill="#D98839" fill-rule="evenodd" transform="matrix(1 0 0 1.03037 341 131.208)"/><path d="M660.045 397.965 661.413 402.753 661.299 408.909 660.843 413.696 658.791 419.51 655.941 422.816 650.811 422.816 527.922 409.934 509.112 407.769 504.666 407.313 501.36 406.857 501.018 406.515 497.826 406.971 495.547 408.111 494.977 405.717 494.179 404.691 493.723 403.095 498.396 403.095 635.877 417.686 642.717 418.028 643.401 415.976 650.583 416.09 650.469 407.769 652.179 400.815 655.257 395.913 657.651 395.799Z" fill="#D98839" fill-rule="evenodd" transform="matrix(1 0 0 1.03037 341 131.208)"/><path d="M659.133 377.331 662.553 379.041 664.377 381.549 666.885 386.679 668.594 397.167 668.594 408.566 666.885 419.738 663.123 430.568 658.335 438.662 654.573 441.056 527.922 427.718 527.922 409.934 650.811 422.816 655.941 422.816 658.791 419.51 660.843 413.696 661.299 408.909 661.641 403.095 661.413 402.753 660.045 397.965 657.651 395.799 655.143 395.229 529.632 382.005 527.922 381.093 527.922 363.31Z" fill="#E9E9E9" fill-rule="evenodd" transform="matrix(1 0 0 1.03037 341 131.208)"/><path d="M173.846 210.211 173.846 212.719 170.312 213.061 156.632 212.035 156.404 211.123 156.746 208.501Z" fill="#CBA27C" fill-rule="evenodd" transform="matrix(1 0 0 1.03037 341 131.208)"/><path d="M29.1833 171.452 26.9034 172.364 28.6133 170.54 29.4113 170.882Z" fill="#E2B48A" fill-rule="evenodd" transform="matrix(1 0 0 1.03037 341 131.208)"/><path d="M33.7432 170.54 29.4113 170.882 28.6133 170.54Z" fill="#686879" fill-rule="evenodd" transform="matrix(1 0 0 1.03037 341 131.208)"/><path d="M178.976 186.158 176.582 186.272 176.468 185.588 177.266 185.132Z" fill="#686879" fill-rule="evenodd" transform="matrix(1 0 0 1.03037 341 131.208)"/><path d="M183.308 186.386 186.728 186.272 185.36 187.526 183.764 187.298Z" fill="#686879" fill-rule="evenodd" transform="matrix(1 0 0 1.03037 341 131.208)"/><path d="M419.852 237.798 419.51 210.211 419.624 209.527 420.194 209.755Z" fill="#686879" fill-rule="evenodd" transform="matrix(1 0 0 1.03037 341 131.208)"/><path d="M415.064 240.99 410.96 240.648 414.494 240.192 415.292 240.534Z" fill="#686879" fill-rule="evenodd" transform="matrix(1 0 0 1.03037 341 131.208)"/><path d="M501.132 267.894 500.448 268.008 497.826 267.21 501.018 267.324Z" fill="#686879" fill-rule="evenodd" transform="matrix(1 0 0 1.03037 341 131.208)"/><path d="M185.816 326.146 183.65 326.146 183.422 325.462 184.106 325.348Z" fill="#686879" fill-rule="evenodd" transform="matrix(1 0 0 1.03037 341 131.208)"/><path d="M401.841 345.298 401.499 317.711 401.613 317.027 402.183 317.141Z" fill="#686879" fill-rule="evenodd" transform="matrix(1 0 0 1.03037 341 131.208)"/><path d="M392.151 348.034 396.597 347.692 397.395 348.034Z" fill="#686879" fill-rule="evenodd" transform="matrix(1 0 0 1.03037 341 131.208)"/><path d="M505.692 379.383 501.588 379.269 501.474 378.699Z" fill="#686879" fill-rule="evenodd" transform="matrix(1 0 0 1.03037 341 131.208)"/><path d="M529.632 382.005 526.212 381.549 527.922 381.093Z" fill="#686879" fill-rule="evenodd" transform="matrix(1 0 0 1.03037 341 131.208)"/><path d="M657.651 395.799 655.257 395.913 655.143 395.229Z" fill="#686879" fill-rule="evenodd" transform="matrix(1 0 0 1.03037 341 131.208)"/><path d="M501.36 406.857 497.826 406.971 501.018 406.515Z" fill="#686879" fill-rule="evenodd" transform="matrix(1 0 0 1.03037 341 131.208)"/><path d="M509.112 407.769 508.2 408.111 504.666 407.313Z" fill="#686879" fill-rule="evenodd" transform="matrix(1 0 0 1.03037 341 131.208)"/><path d="M661.299 408.909 661.413 402.753 661.641 403.095Z" fill="#686879" fill-rule="evenodd" transform="matrix(1 0 0 1.03037 341 131.208)"/><path d="M187.412 168.83 183.422 171.794 177.836 181.598 177.266 185.132 176.468 185.588 156.632 183.65 156.632 165.638Z" fill="#DDDDDD" fill-rule="evenodd" transform="matrix(1 0 0 1.03037 341 131.208)"/><path d="M170.312 213.061 173.846 213.973 174.416 218.305 176.126 225.259 179.66 231.301 171.794 231.301 156.632 230.047 156.632 212.035Z" fill="#DDDDDD" fill-rule="evenodd" transform="matrix(1 0 0 1.03037 341 131.208)"/><path d="M527.922 363.31 527.922 381.093 526.212 381.549 513.33 380.295 510.822 379.383 509.568 371.289 505.464 362.626 503.298 360.916Z" fill="#DDDDDD" fill-rule="evenodd" transform="matrix(1 0 0 1.03037 341 131.208)"/><path d="M156.746 208.501 156.404 211.123 154.01 211.351 32.8312 198.469 26.5614 197.785 24.9654 195.505 25.6494 194.251Z" fill="#D98839" fill-rule="evenodd" transform="matrix(1 0 0 1.03037 341 131.208)"/><path d="M181.256 199.723 182.738 192.542 183.08 214.657 182.396 214.429 174.758 213.517 173.846 212.719 173.846 210.211 181.37 210.895Z" fill="#D98839" fill-rule="evenodd" transform="matrix(1 0 0 1.03037 341 131.208)"/><path d="M501.018 295.937 498.396 297.647 495.318 298.673 495.547 270.744 500.448 268.008 501.132 267.894Z" fill="#D98839" fill-rule="evenodd" transform="matrix(1 0 0 1.03037 341 131.208)"/><path d="M174.758 213.517 173.846 213.973 170.312 213.061 173.846 212.719Z" fill="#9D9DA5" fill-rule="evenodd" transform="matrix(1 0 0 1.03037 341 131.208)"/><path d="M513.33 380.295 509.91 379.839 510.822 379.383Z" fill="#9D9DA5" fill-rule="evenodd" transform="matrix(1 0 0 1.03037 341 131.208)"/><path d="M38.8731 198.925 36.5931 205.309 33.7432 210.553 30.5513 214.201 27.2454 216.025 24.0534 215.683" stroke="#000000" stroke-width="0.889179" stroke-linecap="round" stroke-linejoin="round" stroke-miterlimit="10" fill="none" transform="matrix(1 0 0 1.03037 341 131.208)"/><path d="M32.1473 152.186 35.2252 153.44 37.8471 156.632 40.0131 161.534 41.381 167.804 41.723 171.68" stroke="#000000" stroke-width="0.889179" stroke-linecap="round" stroke-linejoin="round" stroke-miterlimit="10" fill="none" transform="matrix(1 0 0 1.03037 341 131.208)"/><path d="M215.911 329.11 215.911 522.108 156.974 553.571" stroke="#000000" stroke-width="0.889179" stroke-linecap="round" stroke-linejoin="round" stroke-miterlimit="10" fill="none" transform="matrix(1 0 0 1.03037 341 131.208)"/><path d="M156.974 48.5629 468.757 81.6221 468.757 586.744" stroke="#000000" stroke-width="0.889179" stroke-linecap="round" stroke-linejoin="round" stroke-miterlimit="10" fill="none" transform="matrix(1 0 0 1.03037 341 131.208)"/><path d="M181.598 232.441 184.79 232.669 188.096 230.959 191.174 227.311 194.023 222.067 195.619 217.621" stroke="#000000" stroke-width="0.889179" stroke-linecap="round" stroke-linejoin="round" stroke-miterlimit="10" fill="none" transform="matrix(1 0 0 1.03037 341 131.208)"/><path d="M189.578 168.944 192.77 170.198 195.391 173.276 197.443 178.292 198.811 184.562 199.039 186.5" stroke="#000000" stroke-width="0.889179" stroke-linecap="round" stroke-linejoin="round" stroke-miterlimit="10" fill="none" transform="matrix(1 0 0 1.03037 341 131.208)"/><path d="M215.911 522.108 527.694 555.167" stroke="#000000" stroke-width="0.889179" stroke-linecap="round" stroke-linejoin="round" stroke-miterlimit="10" fill="none" transform="matrix(1 0 0 1.03037 341 131.208)"/><path d="M215.911 219.673 215.911 297.647" stroke="#000000" stroke-width="0.889179" stroke-linecap="round" stroke-linejoin="round" stroke-miterlimit="10" fill="none" transform="matrix(1 0 0 1.03037 341 131.208)"/><path d="M215.911 188.324 215.911 16.9856" stroke="#000000" stroke-width="0.889179" stroke-linecap="round" stroke-linejoin="round" stroke-miterlimit="10" fill="none" transform="matrix(1 0 0 1.03037 341 131.208)"/><path d="M468.757 81.6221 527.694 50.1588" stroke="#000000" stroke-width="0.889179" stroke-linecap="round" stroke-linejoin="round" stroke-miterlimit="10" fill="none" transform="matrix(1 0 0 1.03037 341 131.208)"/><path d="M493.381 424.298 490.531 422.018 488.137 418.028 486.427 412.328 485.401 405.375 485.173 397.737 485.743 389.643 487.225 381.891 489.277 374.709 491.899 368.781 494.977 364.222 498.282 361.486 501.474 360.688" stroke="#000000" stroke-width="0.889179" stroke-linecap="round" stroke-linejoin="round" stroke-miterlimit="10" fill="none" transform="matrix(1 0 0 1.03037 341 131.208)"/><path d="M650.925 441.056 648.075 438.776 645.681 434.672 643.971 428.972 642.831 422.132 642.717 414.38 643.287 406.401 644.655 398.649 646.821 391.467 649.443 385.425 652.521 380.979 654.345 379.383 655.713 378.243 659.019 377.445" stroke="#000000" stroke-width="0.889179" stroke-linecap="round" stroke-linejoin="round" stroke-miterlimit="10" fill="none" transform="matrix(1 0 0 1.03037 341 131.208)"/><path d="M18.4676 208.387 17.0996 203.713 16.0736 196.873 15.9596 189.236 16.5296 181.142 17.8976 173.276 19.9495 166.208 22.5715 160.166 25.6494 155.72 28.9553 152.984 32.1473 152.186 189.578 168.944 186.386 169.742 183.08 172.478 180.116 176.924 177.494 182.852 175.442 190.034 173.96 197.899 173.39 205.993 173.504 211.123 173.504 213.631 174.53 220.471 176.354 226.171 178.748 230.275 181.598 232.441 24.0534 215.683 21.2035 213.517 18.8096 209.413 18.4676 208.387Z" stroke="#000000" stroke-width="2.59914" stroke-linecap="round" stroke-linejoin="round" stroke-miterlimit="10" fill="none" transform="matrix(1 0 0 1.03037 341 131.208)"/><path d="M527.694 409.592 527.694 555.167 468.757 586.744 156.974 553.571 156.974 48.5629 215.911 16.9856 527.694 50.1588 527.694 382.005" stroke="#000000" stroke-width="2.59914" stroke-linecap="round" stroke-linejoin="round" stroke-miterlimit="10" fill="none" transform="matrix(1 0 0 1.03037 341 131.208)"/><path d="M493.381 424.298 496.572 424.526 499.878 422.816 503.07 419.168 505.92 413.81 508.2 407.541" stroke="#000000" stroke-width="2.59914" stroke-linecap="round" stroke-linejoin="round" stroke-miterlimit="10" fill="none" transform="matrix(1 0 0 1.03037 341 131.208)"/><path d="M493.951 424.298 654.003 441.284 657.309 439.46 660.501 435.812 663.351 430.568 665.745 423.956 667.568 416.318 668.594 408.339 668.708 400.587 668.138 393.063 666.771 386.793 664.605 381.891 661.983 378.699 659.019 377.445 501.474 360.688 504.552 362.056 507.174 365.134 509.226 370.035 510.708 376.419 510.936 380.181" stroke="#000000" stroke-width="2.59914" stroke-linecap="round" stroke-linejoin="round" stroke-miterlimit="10" fill="none" transform="matrix(1 0 0 1.03037 341 131.208)"/><path d="M264.816 355.786 495.432 380.181 501.018 377.331" stroke="#000000" stroke-width="0.547187" stroke-linecap="round" stroke-linejoin="round" stroke-miterlimit="10" fill="none" transform="matrix(1 0 0 1.03037 341 131.208)"/><path d="M501.018 379.155 499.992 379.041 498.168 379.383 496.344 381.093 495.432 382.575 494.863 383.943 493.495 387.933 492.811 392.379 492.697 396.825 493.153 400.815 494.179 404.007 495.432 405.717 495.432 408.111" stroke="#000000" stroke-width="0.547187" stroke-linecap="round" stroke-linejoin="round" stroke-miterlimit="10" fill="none" transform="matrix(1 0 0 1.03037 341 131.208)"/><path d="M495.432 405.717 495.547 405.831 497.37 406.401 498.51 406.515" stroke="#000000" stroke-width="0.547187" stroke-linecap="round" stroke-linejoin="round" stroke-miterlimit="10" fill="none" transform="matrix(1 0 0 1.03037 341 131.208)"/><path d="M495.432 380.181 495.432 382.575" stroke="#000000" stroke-width="0.547187" stroke-linecap="round" stroke-linejoin="round" stroke-miterlimit="10" fill="none" transform="matrix(1 0 0 1.03037 341 131.208)"/><path d="M657.537 395.799 655.713 396.027 653.889 397.737 652.293 400.701 651.153 404.007 651.039 404.691 650.241 409.022 650.127 413.582 650.583 417.458 651.609 420.65 652.977 422.588 654.801 423.044" stroke="#000000" stroke-width="0.547187" stroke-linecap="round" stroke-linejoin="round" stroke-miterlimit="10" fill="none" transform="matrix(1 0 0 1.03037 341 131.208)"/><path d="M265.044 383.601 264.816 383.601 264.816 355.786 270.402 352.708 501.018 377.217 501.018 379.155 657.537 395.799 659.133 397.053 660.387 399.561 661.185 403.209 661.299 407.541 660.843 411.986 659.817 416.318 658.335 419.738 656.625 422.132 654.801 423.044 498.51 406.515 495.432 408.111 265.044 383.601Z" stroke="#000000" stroke-width="1.70996" stroke-linecap="round" stroke-linejoin="round" stroke-miterlimit="10" fill="none" transform="matrix(1 0 0 1.03037 341 131.208)"/><path d="M183.65 297.875 396.255 320.333 401.841 317.483" stroke="#000000" stroke-width="0.547187" stroke-linecap="round" stroke-linejoin="round" stroke-miterlimit="10" fill="none" transform="matrix(1 0 0 1.03037 341 131.208)"/><path d="M396.255 320.333 396.255 348.262" stroke="#000000" stroke-width="0.547187" stroke-linecap="round" stroke-linejoin="round" stroke-miterlimit="10" fill="none" transform="matrix(1 0 0 1.03037 341 131.208)"/><path d="M183.65 325.69 396.255 348.262 401.841 345.298 401.841 317.483 189.236 294.911 183.65 297.875 183.65 325.69Z" stroke="#000000" stroke-width="1.70996" stroke-linecap="round" stroke-linejoin="round" stroke-miterlimit="10" fill="none" transform="matrix(1 0 0 1.03037 341 131.208)"/><path d="M501.018 267.894 495.432 270.858 282.827 248.286" stroke="#000000" stroke-width="0.547187" stroke-linecap="round" stroke-linejoin="round" stroke-miterlimit="10" fill="none" transform="matrix(1 0 0 1.03037 341 131.208)"/><path d="M495.432 298.673 495.432 270.858" stroke="#000000" stroke-width="0.547187" stroke-linecap="round" stroke-linejoin="round" stroke-miterlimit="10" fill="none" transform="matrix(1 0 0 1.03037 341 131.208)"/><path d="M282.827 276.102 282.827 248.286 288.413 245.322 501.018 267.894 501.018 295.709 495.432 298.673 282.827 276.102Z" stroke="#000000" stroke-width="1.70996" stroke-linecap="round" stroke-linejoin="round" stroke-miterlimit="10" fill="none" transform="matrix(1 0 0 1.03037 341 131.208)"/><path d="M183.65 213.973 183.65 190.832 182.966 192.2 181.712 196.075 180.914 200.521 180.8 204.967 181.256 208.957 182.282 212.149 183.65 213.973 183.65 214.315" stroke="#000000" stroke-width="0.547187" stroke-linecap="round" stroke-linejoin="round" stroke-miterlimit="10" fill="none" transform="matrix(1 0 0 1.03037 341 131.208)"/><path d="M183.65 190.832 183.65 188.438 414.266 212.947 414.266 240.762" stroke="#000000" stroke-width="0.547187" stroke-linecap="round" stroke-linejoin="round" stroke-miterlimit="10" fill="none" transform="matrix(1 0 0 1.03037 341 131.208)"/><path d="M183.65 188.438 186.158 187.07" stroke="#000000" stroke-width="0.547187" stroke-linecap="round" stroke-linejoin="round" stroke-miterlimit="10" fill="none" transform="matrix(1 0 0 1.03037 341 131.208)"/><path d="M414.266 212.947 419.852 209.983" stroke="#000000" stroke-width="0.547187" stroke-linecap="round" stroke-linejoin="round" stroke-miterlimit="10" fill="none" transform="matrix(1 0 0 1.03037 341 131.208)"/><path d="M25.3074 196.075 24.7374 195.391 23.7114 192.314 23.3695 188.21 23.4835 183.764 24.2814 179.318 25.4214 175.442 27.1314 172.478 28.9553 170.768 30.7793 170.54 186.158 187.07 189.236 185.474 419.852 209.983 419.852 237.798 414.266 240.762 183.65 216.253 183.65 214.315 28.0433 197.785 26.2194 197.329 25.3074 196.075Z" stroke="#000000" stroke-width="1.70996" stroke-linecap="round" stroke-linejoin="round" stroke-miterlimit="10" fill="none" transform="matrix(1 0 0 1.03037 341 131.208)"/><path d="M-101.8-61.9006-100.432-61.9006-100.432-60.6466-101.8-60.6466-101.8-61.9006ZM-101.23-61.3306-101.23-61.3306-101.23-61.3306-101.23-61.3306-101.23-61.3306Z" stroke="#000000" stroke-width="1.13997" stroke-linecap="round" stroke-linejoin="round" stroke-miterlimit="10" fill="#E6E6E6" fill-rule="evenodd" transform="matrix(1 0 0 1.03037 341 131.208)"/><path d="M-101.23-61.2166-101.116-61.2166-101.116-61.3306-101.116-61.3306-101.116-61.2166-101.23-61.2166Z" fill-rule="evenodd" transform="matrix(1 0 0 1.03037 341 131.208)"/><path d="M-101.23-61.3306-4.3319-61.3306-4.3319-35.4532-101.23-35.4532Z" fill-rule="evenodd" transform="matrix(1 0 0 1.03037 341 131.208)"/><path d="M-101.23-61.3306-4.3319-61.3306-4.3319-35.4532-101.23-35.4532Z" stroke="#000000" stroke-width="3.21473" stroke-linecap="round" stroke-linejoin="round" stroke-miterlimit="10" fill="#FFFFE1" fill-rule="evenodd" transform="matrix(1 0 0 1.03037 341 131.208)"/><path d="M-94.0478-88.4619-94.0478-82.4201-86.866-82.4201-86.866-79.6842-94.0478-79.6842-94.0478-68.1704C-94.0478-66.4605-93.8198-65.3205-93.3638-64.8645-92.9078-64.4085-91.8819-64.1805-90.5139-64.1805L-86.866-64.1805-86.866-61.2166-90.5139-61.2166C-93.1358-61.2166-95.0738-61.6726-96.0998-62.6985-97.1257-63.7245-97.5817-65.5485-97.5817-68.1704L-97.5817-79.7981-100.204-79.7981-100.204-82.5341-97.5817-82.5341-97.5817-88.5759-94.0478-88.5759Z" fill-rule="evenodd" transform="matrix(1 0 0 1.03037 341 131.208)"/><path d="M-74.0983-80.0261C-75.9222-80.0261-77.4042-79.3422-78.5442-77.8602-79.6842-76.3782-80.1401-74.4403-80.1401-71.9323-80.1401-69.4244-79.5702-67.3724-78.5442-65.8905-77.4042-64.4085-76.0362-63.7245-74.0983-63.7245-72.2743-63.7245-70.7924-64.5225-69.7664-65.8905-68.6264-67.3724-68.1704-69.4244-68.1704-71.9323-68.1704-74.4403-68.7404-76.4922-69.7664-77.8602-70.7924-79.3422-72.2743-80.0261-74.0983-80.0261L-74.0983-80.0261ZM-74.0983-82.9901C-71.1343-82.9901-68.7404-81.9641-67.0304-80.0261-65.3205-78.0882-64.4085-75.3522-64.4085-71.9323-64.4085-68.3984-65.3205-65.6625-67.0304-63.7245-68.7404-61.7866-71.1343-60.7606-74.0983-60.7606-77.1762-60.7606-79.5702-61.6726-81.2801-63.7245-82.9901-65.6625-83.7881-68.3984-83.7881-71.9323-83.7881-75.4662-82.9901-78.2022-81.2801-80.0261-79.5702-81.9641-77.1762-82.9901-74.0983-82.9901L-74.0983-82.9901Z" fill-rule="evenodd" transform="matrix(1 0 0 1.03037 341 131.208)"/><path d="M-50.3868-80.0261C-52.3248-80.0261-53.6928-79.3422-54.8327-77.8602-55.9727-76.3782-56.4287-74.4403-56.4287-71.9323-56.4287-69.4244-55.8587-67.3724-54.8327-65.8905-53.6928-64.4085-52.3248-63.7245-50.3868-63.7245-48.5629-63.7245-47.0809-64.5225-46.0549-65.8905-44.915-67.3724-44.459-69.4244-44.459-71.9323-44.459-74.4403-45.029-76.4922-46.0549-77.8602-47.0809-79.3422-48.5629-80.0261-50.3868-80.0261L-50.3868-80.0261ZM-50.3868-82.9901C-47.4229-82.9901-45.029-81.9641-43.319-80.0261-41.609-78.0882-40.6971-75.3522-40.6971-71.9323-40.6971-68.3984-41.609-65.6625-43.319-63.7245-45.029-61.7866-47.4229-60.7606-50.3868-60.7606-53.4648-60.7606-55.8587-61.6726-57.5687-63.7245-59.2786-65.6625-60.1906-68.3984-60.1906-71.9323-60.1906-75.4662-59.2786-78.2022-57.5687-80.0261-55.8587-81.9641-53.4648-82.9901-50.3868-82.9901L-50.3868-82.9901Z" fill-rule="evenodd" transform="matrix(1 0 0 1.03037 341 131.208)"/><path d="M-34.8832-90.7419-31.3493-90.7419-31.3493-61.2166-34.8832-61.2166Z" fill-rule="evenodd" transform="matrix(1 0 0 1.03037 341 131.208)"/><path d="M-20.7475-88.4619-20.7475-82.4201-13.5657-82.4201-13.5657-79.6842-20.7475-79.6842-20.7475-68.1704C-20.7475-66.4605-20.5195-65.3205-19.9495-64.8645-19.4935-64.4085-18.4676-64.1805-17.0996-64.1805L-13.5657-64.1805-13.5657-61.2166-17.0996-61.2166C-19.7215-61.2166-21.6595-61.6726-22.6855-62.6985-23.7114-63.7245-24.2814-65.5485-24.2814-68.1704L-24.2814-79.7981-26.7894-79.7981-26.7894-82.5341-24.2814-82.5341-24.2814-88.5759-20.7475-88.5759Z" fill-rule="evenodd" transform="matrix(1 0 0 1.03037 341 131.208)"/><path d="M-8.89179-82.5341-5.35788-82.5341-5.35788-61.3306-8.89179-61.3306-8.89179-82.5341ZM-8.89179-90.7419-5.35788-90.7419-5.35788-86.296-8.89179-86.296-8.89179-90.7419Z" fill-rule="evenodd" transform="matrix(1 0 0 1.03037 341 131.208)"/><path d="M5.24388-64.5225 5.24388-53.2368 1.70996-53.2368 1.70996-82.5341 5.24388-82.5341 5.24388-79.3422C5.92786-80.4821 6.83984-81.5081 7.97981-82.0781 9.11979-82.6481 10.4878-82.9901 11.9697-82.9901 14.5917-82.9901 16.6436-81.9641 18.2396-79.9121 19.8355-77.8602 20.6335-75.1243 20.6335-71.8183 20.6335-68.5124 19.8355-65.7765 18.2396-63.7245 16.6436-61.6726 14.5917-60.6466 11.9697-60.6466 10.3738-60.6466 9.11979-60.8746 7.97981-61.5586 6.83984-62.2426 5.92786-63.1545 5.24388-64.5225L5.24388-64.5225ZM17.0996-71.9323C17.0996-74.4403 16.6436-76.4922 15.5036-77.9742 14.4777-79.4562 12.9957-80.1401 11.1717-80.1401 9.34778-80.1401 7.86582-79.3422 6.83984-77.9742 5.81386-76.6062 5.24388-74.4403 5.24388-71.9323 5.24388-69.3104 5.81386-67.3724 6.83984-65.8905 7.86582-64.4085 9.34778-63.7245 11.1717-63.7245 12.9957-63.7245 14.4777-64.4085 15.5036-65.8905 16.5296-67.2584 17.0996-69.3104 17.0996-71.9323L17.0996-71.9323Z" fill-rule="evenodd" transform="matrix(1 0 0 1.03037 341 131.208)"/></g><path d="M526 282 526 326.413" stroke="#000000" stroke-width="2" stroke-miterlimit="8" stroke-dasharray="6 2" fill="none" fill-rule="evenodd"/><path d="M755 306 755 350.413" stroke="#000000" stroke-width="2" stroke-miterlimit="8" stroke-dasharray="6 2" fill="none" fill-rule="evenodd"/><path d="M667.103 313.005 746.598 321.204 746.393 323.193 666.897 314.995ZM745.58 318.083 753.127 322.883 744.759 326.041Z"/><path d="M612.024 308.877 532.529 300.679 532.734 298.689 612.23 306.888ZM533.547 303.8 526 299 534.368 295.842Z"/><path d="M625 371 625 386.223" stroke="#000000" stroke-width="2" stroke-miterlimit="8" stroke-dasharray="6 2" fill="none" fill-rule="evenodd"/><path d="M836 388 836 410.207" stroke="#000000" stroke-width="2" stroke-miterlimit="8" stroke-dasharray="6 2" fill="none" fill-rule="evenodd"/><path d="M758.113 389.006 829.575 397.136 829.349 399.123 757.887 390.994ZM828.589 394.004 836.086 398.883 827.685 401.953Z"/><path d="M702.401 384.876 631.51 376.753 631.737 374.766 702.628 382.889ZM632.493 379.885 625 375 633.403 371.937Z"/><path d="M525 420 525 437.765" stroke="#000000" stroke-width="2" stroke-miterlimit="8" stroke-dasharray="6 2" fill="none" fill-rule="evenodd"/><path d="M738 440 738 462.207" stroke="#000000" stroke-width="2" stroke-miterlimit="8" stroke-dasharray="6 2" fill="none" fill-rule="evenodd"/><path d="M659.113 439.006 730.575 447.136 730.349 449.123 658.887 440.994ZM729.589 444.004 737.086 448.883 728.685 451.953Z"/><path d="M603.401 435.876 532.51 427.753 532.737 425.766 603.628 433.889ZM533.493 430.885 526 426 534.403 422.937Z"/><path d="M606 528 606 572.413" stroke="#000000" stroke-width="2" stroke-miterlimit="8" stroke-dasharray="6 2" fill="none" fill-rule="evenodd"/><path d="M835 552 835 596.413" stroke="#000000" stroke-width="2" stroke-miterlimit="8" stroke-dasharray="6 2" fill="none" fill-rule="evenodd"/><path d="M747.103 561.005 826.598 569.204 826.393 571.193 746.897 562.995ZM825.58 566.083 833.127 570.883 824.759 574.041Z"/><path d="M692.024 558.877 612.529 550.679 612.734 548.689 692.23 556.888ZM613.547 553.8 606 549 614.368 545.842Z"/><path d="M593 387 623.144 390.109" stroke="#000000" stroke-width="2" stroke-miterlimit="8" stroke-dasharray="6 2" fill="none" fill-rule="evenodd"/><path d="M611.167 369.167 611.167 382.992 609.833 382.992 609.833 369.167ZM606.5 370.5 610.5 362.5 614.5 370.5ZM614.5 381.659 610.5 389.659 606.5 381.659Z"/><path d="M737 462 767.144 465.109" stroke="#000000" stroke-width="2" stroke-miterlimit="8" stroke-dasharray="6 2" fill="none" fill-rule="evenodd"/><path d="M759.167 438.167 759.167 455.034 757.833 455.034 757.833 438.167ZM754.5 439.5 758.5 431.5 762.5 439.5ZM762.5 453.701 758.5 461.701 754.5 453.701Z"/><path d="M576 497 606.144 500.109" stroke="#000000" stroke-width="2" stroke-miterlimit="8" stroke-dasharray="6 2" fill="none" fill-rule="evenodd"/><path d="M595.167 481.167 595.167 492.261 593.833 492.261 593.833 481.167ZM590.5 482.5 594.5 474.5 598.5 482.5ZM598.5 490.927 594.5 498.927 590.5 490.927Z"/><text font-family="Times New Roman,Times New Roman_MSFontService,sans-serif" font-weight="700" font-size="37" transform="translate(625.874 327)">L<tspan font-size="25" x="24.8333" y="8">1</tspan><tspan font-size="37" x="80.9329" y="249">L</tspan><tspan font-size="25" x="105.766" y="257">1</tspan><tspan font-size="37" x="89.8741" y="68">L</tspan><tspan font-size="25" x="114.707" y="76">2</tspan><tspan font-size="37" x="-4.24915" y="121">L</tspan><tspan font-size="25" x="20.5842" y="129">2</tspan><tspan font-size="37" x="-72.861" y="46">d</tspan><tspan font-size="25" x="-52.1943" y="54">12</tspan><tspan font-size="37" x="-87.7833" y="156">d</tspan><tspan font-size="25" x="-67.1166" y="164">12</tspan><tspan font-size="37" x="139.13" y="141">d</tspan><tspan font-size="25" x="159.797" y="149">23</tspan></text></g></svg>